<svg xmlns="http://www.w3.org/2000/svg" width="318.419" height="66.255" viewBox="0 0 318.419 66.255">
    <g>
        <g>
            <path d="M215.352 295.78h-.139a4.836 4.836 0 0 1-4.581-3.288l-6.183-18.3a3.086 3.086 0 0 1 2.924-4.074 3.086 3.086 0 0 1 2.967 2.238l2.847 9.958a2.183 2.183 0 0 0 4.2 0l2.848-9.959a3.086 3.086 0 0 1 2.967-2.237 3.086 3.086 0 0 1 2.924 4.074l-6.179 18.29a4.848 4.848 0 0 1-4.595 3.298z" transform="translate(-89 -31.422) translate(89 49.515) translate(-173.065 -270.066)"/>
            <path d="M267.221 290.81h-6.268a2.441 2.441 0 0 0-2.326 1.7l-.5 1.567a2.441 2.441 0 0 1-2.326 1.7h-1.211a2.441 2.441 0 0 1-2.287-3.293l7.2-19.331a4.665 4.665 0 0 1 4.371-3.036h.447a4.674 4.674 0 0 1 4.381 3.043l7.2 19.324a2.441 2.441 0 0 1-2.287 3.293h-1.225a2.441 2.441 0 0 1-2.321-1.685l-.521-1.6a2.441 2.441 0 0 0-2.327-1.682zm-3.134-5.01a2.441 2.441 0 0 0 2.336-3.147 2.441 2.441 0 0 0-4.671-.008 2.441 2.441 0 0 0 2.335 3.155z" transform="translate(-89 -31.422) translate(89 49.515) translate(-192.653 -270.066)"/>
            <path d="M166.51 290.81h-6.267a2.442 2.442 0 0 0-2.327 1.7l-.5 1.567a2.441 2.441 0 0 1-2.326 1.7h-1.213a2.441 2.441 0 0 1-2.287-3.293l7.2-19.331a4.665 4.665 0 0 1 4.371-3.036h.447a4.674 4.674 0 0 1 4.381 3.043l7.2 19.324a2.441 2.441 0 0 1-2.287 3.293h-1.225a2.441 2.441 0 0 1-2.322-1.685l-.521-1.6a2.44 2.44 0 0 0-2.324-1.682zm-3.134-5.01a2.441 2.441 0 0 0 2.336-3.147 2.441 2.441 0 0 0-4.67-.008 2.441 2.441 0 0 0 2.334 3.155z" transform="translate(-89 -31.422) translate(89 49.515) translate(-151.436 -270.066)"/>
            <path d="M323.971 272.623a2.5 2.5 0 0 1-2.5 2.5h-1.888a2.5 2.5 0 0 0-2.5 2.5v15.643a2.5 2.5 0 0 1-2.5 2.5h-1.31a2.5 2.5 0 0 1-2.5-2.5v-15.634a2.5 2.5 0 0 0-2.5-2.5h-1.887a2.5 2.5 0 0 1-2.5-2.5 2.5 2.5 0 0 1 2.5-2.5h15.1a2.5 2.5 0 0 1 2.485 2.491z" transform="translate(-89 -31.422) translate(89 49.515) translate(-213.817 -270.066)"/>
            <path d="M365.992 290.81h-6.267a2.441 2.441 0 0 0-2.326 1.7l-.5 1.567a2.44 2.44 0 0 1-2.326 1.7h-1.212a2.441 2.441 0 0 1-2.288-3.293l7.2-19.324a4.677 4.677 0 0 1 4.383-3.044h.446a4.663 4.663 0 0 1 4.371 3.036l7.2 19.331a2.441 2.441 0 0 1-2.287 3.293h-1.226a2.441 2.441 0 0 1-2.321-1.685l-.521-1.6a2.441 2.441 0 0 0-2.326-1.681zm-3.134-5.01a2.441 2.441 0 0 0 2.336-3.147 2.441 2.441 0 0 0-4.67-.008 2.441 2.441 0 0 0 2.334 3.155z" transform="translate(-89 -31.422) translate(89 49.515) translate(-233.076 -270.066)"/>
            <path d="M425.3 278.249a7.306 7.306 0 0 1-1.444 4.508 8.281 8.281 0 0 1-2.388 2.131 1.534 1.534 0 0 0-.383 2.3l5.069 6.064a1.541 1.541 0 0 1-1.182 2.529h-2.458a4.2 4.2 0 0 1-3.288-1.59l-5.328-6.726a1.541 1.541 0 0 0-1.208-.584h-.411v7.359a1.541 1.541 0 0 1-1.541 1.541H407.5a1.541 1.541 0 0 1-1.541-1.541v-21.757a2.363 2.363 0 0 1 2.364-2.364h5.805a18.613 18.613 0 0 1 4.43.5 11.108 11.108 0 0 1 3.545 1.5 6.969 6.969 0 0 1 3.2 6.127zm-6.088.115a2.8 2.8 0 0 0-1.349-2.562 7.23 7.23 0 0 0-3.775-.828h-.271a1.541 1.541 0 0 0-1.541 1.541v4.123a1.541 1.541 0 0 0 1.541 1.541 6.816 6.816 0 0 0 3.969-1 3.24 3.24 0 0 0 1.425-2.815z" transform="translate(-89 -31.422) translate(89 49.515) translate(-255.601 -270.066)"/>
            <path d="M544.322 270.813a3.159 3.159 0 0 1 3.159 3.159v13.254a9.1 9.1 0 0 1-2.871 7.128q-2.87 2.582-7.994 2.582t-8-2.582a9.1 9.1 0 0 1-2.87-7.128v-13.254a3.159 3.159 0 0 1 3.159-3.159 3.159 3.159 0 0 1 3.159 3.159v13.447a4.537 4.537 0 0 0 1.157 3.352 5.55 5.55 0 0 0 6.781 0 4.539 4.539 0 0 0 1.155-3.352v-13.447a3.159 3.159 0 0 1 3.165-3.159z" transform="translate(-89 -31.422) translate(89 49.515) translate(-304.628 -270.35)"/>
            <path d="M583.877 296.474a3.16 3.16 0 0 1-3.16-3.16v-19.342a3.16 3.16 0 0 1 3.16-3.159 3.159 3.159 0 0 1 3.159 3.159v19.342a3.159 3.159 0 0 1-3.159 3.16z" transform="translate(-89 -31.422) translate(89 49.515) translate(-327.124 -270.35)"/>
            <path d="M617.813 273.317v15.644a2.5 2.5 0 0 0 2.5 2.5h4.432a2.5 2.5 0 0 1 2.5 2.5 2.5 2.5 0 0 1-2.5 2.5H614a2.5 2.5 0 0 1-2.5-2.5v-20.644a2.5 2.5 0 0 1 2.5-2.5h1.31a2.5 2.5 0 0 1 2.503 2.5z" transform="translate(-89 -31.422) translate(89 49.515) translate(-339.719 -270.35)"/>
            <path d="M651.319 272.7a1.888 1.888 0 0 1 1.887-1.888h5.934a19.24 19.24 0 0 1 6.223.963 14.761 14.761 0 0 1 4.835 2.659 12.057 12.057 0 0 1 0 18.417 14.74 14.74 0 0 1-4.835 2.659 19.224 19.224 0 0 1-6.223.964h-5.934a1.888 1.888 0 0 1-1.887-1.888zm8.207 18.764a10.8 10.8 0 0 0 3.507-.539 7.919 7.919 0 0 0 2.716-1.542 6.737 6.737 0 0 0 1.753-2.446 9.115 9.115 0 0 0 0-6.589 6.739 6.739 0 0 0-1.753-2.447 7.937 7.937 0 0 0-2.716-1.541 10.8 10.8 0 0 0-3.507-.54 1.888 1.888 0 0 0-1.887 1.888v11.868a1.888 1.888 0 0 0 1.887 1.888z" transform="translate(-89 -31.422) translate(89 49.515) translate(-356.018 -270.35)"/>
            <path d="M486.839 270.03a21.729 21.729 0 0 1 7.071 1.035 1.648 1.648 0 0 1 1.09 1.846l-.28 1.568a1.6 1.6 0 0 1-2.048 1.285 18.81 18.81 0 0 0-5.221-.726 11.19 11.19 0 0 0-3.467.5 6.734 6.734 0 0 0-2.639 1.561 7.021 7.021 0 0 0-1.7 2.7 11.437 11.437 0 0 0-.6 3.911q0 4.008 2.1 6.05t6.184 2.042a10.249 10.249 0 0 0 1.695-.135 1.614 1.614 0 0 0 1.349-1.592v-4.266a1.636 1.636 0 0 1 1.636-1.636h2.391a1.636 1.636 0 0 1 1.636 1.636v6.567a3.428 3.428 0 0 1-2.5 3.3q-.8.226-1.72.413a26.553 26.553 0 0 1-5.337.525 16.537 16.537 0 0 1-5.78-.944 12.385 12.385 0 0 1-4.315-2.639 11.368 11.368 0 0 1-2.716-4.065 14.086 14.086 0 0 1-.944-5.259 15.891 15.891 0 0 1 .944-5.606 11.783 11.783 0 0 1 2.754-4.315 12.388 12.388 0 0 1 4.431-2.774 16.932 16.932 0 0 1 5.986-.982z" transform="translate(-89 -31.422) translate(89 49.515) translate(-282.932 -270.03)"/>
        </g>
        <g>
            <g>
                <g>
                    <path d="M316.5 334.191a2.165 2.165 0 0 1-.256 1.057 2.308 2.308 0 0 1-.707.785 3.368 3.368 0 0 1-1.063.484 5 5 0 0 1-1.324.167h-.19v2.5h-1.83v-7.414h2.137a5.5 5.5 0 0 1 1.3.145 3.064 3.064 0 0 1 1.024.44 2.057 2.057 0 0 1 .668.751 2.293 2.293 0 0 1 .241 1.085zm-1.759.011q0-1.024-1.458-1.024h-.323v2.1h.3a1.793 1.793 0 0 0 1.1-.289.941.941 0 0 0 .377-.789z" transform="translate(-89 -31.422) translate(183.337 81.647) translate(0 3.898) translate(-311.13 -331.33)"/>
                    <path d="M327.493 337.741a3.231 3.231 0 0 1-.189 1.119 2.486 2.486 0 0 1-1.469 1.5 3.684 3.684 0 0 1-2.493 0 2.539 2.539 0 0 1-.913-.6 2.566 2.566 0 0 1-.557-.9 3.406 3.406 0 0 1 0-2.238 2.5 2.5 0 0 1 1.47-1.5 3.694 3.694 0 0 1 2.493 0 2.493 2.493 0 0 1 1.469 1.5 3.227 3.227 0 0 1 .189 1.119zm-1.781 0a2.8 2.8 0 0 0-.056-.562 1.575 1.575 0 0 0-.184-.489.958.958 0 0 0-.345-.346 1.2 1.2 0 0 0-1.08 0 .962.962 0 0 0-.345.346 1.56 1.56 0 0 0-.183.489 2.843 2.843 0 0 0 0 1.124 1.568 1.568 0 0 0 .183.49.959.959 0 0 0 .345.344 1.2 1.2 0 0 0 1.08 0 .955.955 0 0 0 .345-.344 1.583 1.583 0 0 0 .184-.49 2.789 2.789 0 0 0 .055-.562z" transform="translate(-89 -31.422) translate(183.337 81.647) translate(0 3.898) translate(-315.449 -332.61)"/>
                    <path d="M338.477 340.546l-1.2-3.484-1.2 3.484H334.4l-1.547-5.454h1.7l.768 3.283 1.113-3.283h1.67l1.114 3.283.768-3.283h1.7l-1.547 5.454z" transform="translate(-89 -31.422) translate(183.337 81.647) translate(0 3.898) translate(-320.022 -332.687)"/>
                    <path d="M351.588 334.9a2.276 2.276 0 0 1 1.692.629 2.367 2.367 0 0 1 .624 1.743 4.412 4.412 0 0 1-.1.9h-3.161a1.144 1.144 0 0 0 .339.807 1.358 1.358 0 0 0 .974.306 5.226 5.226 0 0 0 .841-.072 3.107 3.107 0 0 0 .762-.217l.223 1.146a3.935 3.935 0 0 1-.952.323 5.333 5.333 0 0 1-1.1.111 3.552 3.552 0 0 1-1.258-.206 2.534 2.534 0 0 1-.913-.574 2.4 2.4 0 0 1-.557-.879 3.25 3.25 0 0 1-.19-1.135 3.49 3.49 0 0 1 .195-1.2 2.525 2.525 0 0 1 .556-.907 2.423 2.423 0 0 1 .874-.573 3.114 3.114 0 0 1 1.151-.202zm-.056 1.135a.8.8 0 0 0-.652.273 1.137 1.137 0 0 0-.228.751h1.581a.787.787 0 0 0 .022-.19.93.93 0 0 0-.189-.595.642.642 0 0 0-.534-.236z" transform="translate(-89 -31.422) translate(183.337 81.647) translate(0 3.898) translate(-326.553 -332.61)"/>
                    <path d="M363.379 336.6h-.211a1.824 1.824 0 0 0-1.492.534v3.384h-1.781v-5.454h1.726v.913a1.5 1.5 0 0 1 .478-.7 1.323 1.323 0 0 1 .847-.256 1.786 1.786 0 0 1 .261.017 1.728 1.728 0 0 1 .217.05z" transform="translate(-89 -31.422) translate(183.337 81.647) translate(0 3.898) translate(-331.088 -332.656)"/>
                    <path d="M369.96 334.9a2.276 2.276 0 0 1 1.692.629 2.369 2.369 0 0 1 .623 1.743 4.409 4.409 0 0 1-.1.9h-3.162a1.144 1.144 0 0 0 .34.807 1.357 1.357 0 0 0 .974.306 5.216 5.216 0 0 0 .841-.072 3.113 3.113 0 0 0 .763-.217l.223 1.146a3.936 3.936 0 0 1-.952.323 5.333 5.333 0 0 1-1.1.111 3.552 3.552 0 0 1-1.258-.206 2.541 2.541 0 0 1-.913-.574 2.416 2.416 0 0 1-.556-.879 3.249 3.249 0 0 1-.189-1.135 3.49 3.49 0 0 1 .195-1.2 2.524 2.524 0 0 1 .556-.907 2.423 2.423 0 0 1 .874-.573 3.112 3.112 0 0 1 1.149-.202zm-.056 1.135a.8.8 0 0 0-.651.273 1.137 1.137 0 0 0-.228.751h1.581a.788.788 0 0 0 .022-.19.927.927 0 0 0-.189-.595.641.641 0 0 0-.539-.236z" transform="translate(-89 -31.422) translate(183.337 81.647) translate(0 3.898) translate(-334.072 -332.61)"/>
                    <path d="M383.186 338.88h-1.7v-.68a1.859 1.859 0 0 1-.662.579 2.048 2.048 0 0 1-.974.216 1.941 1.941 0 0 1-.857-.194 2.051 2.051 0 0 1-.7-.557 2.683 2.683 0 0 1-.462-.874 3.7 3.7 0 0 1-.167-1.147 3.23 3.23 0 0 1 .228-1.258 2.66 2.66 0 0 1 .613-.913 2.493 2.493 0 0 1 .9-.551 3.21 3.21 0 0 1 1.091-.184 3.049 3.049 0 0 1 .512.038 3.266 3.266 0 0 1 .4.1v-2.427h1.781zm-2.694-1.247a1.175 1.175 0 0 0 .913-.38v-2.514a1.9 1.9 0 0 0-.634-.089 1.2 1.2 0 0 0-1 .413 1.769 1.769 0 0 0-.328 1.129 1.939 1.939 0 0 0 .25 1.039.867.867 0 0 0 .799.402z" transform="translate(-89 -31.422) translate(183.337 81.647) translate(0 3.898) translate(-338.36 -331.021)"/>
                    <path d="M395.17 331.021h1.781v2.828a1.889 1.889 0 0 1 .562-.384 1.991 1.991 0 0 1 .829-.151 2.234 2.234 0 0 1 .968.206 2.124 2.124 0 0 1 .74.579 2.7 2.7 0 0 1 .473.885 3.6 3.6 0 0 1 .167 1.124 3.219 3.219 0 0 1-.195 1.118 2.5 2.5 0 0 1-.585.919 2.769 2.769 0 0 1-.979.617 3.809 3.809 0 0 1-1.38.229 5.488 5.488 0 0 1-1.275-.145 4.937 4.937 0 0 1-1.108-.4zm2.661 3.651a1.375 1.375 0 0 0-.88.3v2.582a1.319 1.319 0 0 0 .289.089 1.738 1.738 0 0 0 .345.033 1.383 1.383 0 0 0 .6-.122 1.08 1.08 0 0 0 .412-.334 1.494 1.494 0 0 0 .234-.49 2.242 2.242 0 0 0 .078-.6 1.9 1.9 0 0 0-.262-1.063.911.911 0 0 0-.816-.395z" transform="translate(-89 -31.422) translate(183.337 81.647) translate(0 3.898) translate(-345.524 -331.021)"/>
                    <path d="M407.018 342.839l.712-2.16-1.97-5.587h1.848l1 3.885.991-3.885h1.792l-2.582 7.747z" transform="translate(-89 -31.422) translate(183.337 81.647) translate(0 3.898) translate(-349.858 -332.687)"/>
                </g>
            </g>
            <g>
                <path d="M522.455 333.811a16.354 16.354 0 0 0-3.52 7.735 18.623 18.623 0 0 1 6.153-3.081l.025-.008a1.029 1.029 0 0 0 .761-1.188 11.049 11.049 0 0 0-.529-1.592 2.168 2.168 0 0 1 .576-2.573z" transform="translate(-89 -31.422) translate(183.337 81.647) translate(119.942) translate(-516.118 -327.974)"/>
                <g transform="translate(-89 -31.422) translate(183.337 81.647) translate(119.942)">
                    <path d="M514.183 326.72l5.5 4.031s-5.863 2.223-5.5-4.031z" transform="translate(-514.167 -325.363)"/>
                    <circle cx="2.345" cy="2.345" r="2.345" transform="translate(5.021)"/>
                </g>
            </g>
            <g>
                <path d="M433.507 332.494a6.346 6.346 0 0 1-.381 2.211 5.371 5.371 0 0 1-1.1 1.813 5.2 5.2 0 0 1-1.763 1.233 5.9 5.9 0 0 1-2.384.455 5.968 5.968 0 0 1-2.392-.455 5.175 5.175 0 0 1-1.771-1.233 5.25 5.25 0 0 1-1.093-1.813 6.741 6.741 0 0 1 0-4.421 5.25 5.25 0 0 1 1.093-1.813 5.184 5.184 0 0 1 1.771-1.233 5.968 5.968 0 0 1 2.392-.455 5.9 5.9 0 0 1 2.384.455 5.2 5.2 0 0 1 1.763 1.233 5.37 5.37 0 0 1 1.1 1.813 6.346 6.346 0 0 1 .381 2.21zm-5.63 3.56a2.842 2.842 0 0 0 1.258-.265 2.6 2.6 0 0 0 .919-.736 3.173 3.173 0 0 0 .555-1.127 5.727 5.727 0 0 0 0-2.864 3.164 3.164 0 0 0-.555-1.126 2.6 2.6 0 0 0-.919-.737 3.137 3.137 0 0 0-2.525 0 2.618 2.618 0 0 0-.91.737 3.144 3.144 0 0 0-.555 1.126 5.707 5.707 0 0 0 0 2.864 3.152 3.152 0 0 0 .555 1.127 2.621 2.621 0 0 0 .91.736 2.828 2.828 0 0 0 1.267.265z" transform="translate(-89 -31.422) translate(183.337 81.647) translate(65.642 .931) translate(-422.248 -326.319)"/>
                <path d="M448.563 334.29h-.314a2.714 2.714 0 0 0-2.219.794v5.034h-2.649v-8.113h2.566v1.358a2.234 2.234 0 0 1 .712-1.043 1.965 1.965 0 0 1 1.258-.381 2.483 2.483 0 0 1 .389.025 2.413 2.413 0 0 1 .323.074z" transform="translate(-89 -31.422) translate(183.337 81.647) translate(65.642 .931) translate(-430.897 -328.429)"/>
                <path d="M455.313 343.576l1.06-3.212-2.931-8.311h2.749l1.49 5.778 1.474-5.778h2.666l-3.842 11.524z" transform="translate(-89 -31.422) translate(183.337 81.647) translate(65.642 .931) translate(-435.014 -328.476)"/>
                <path d="M472.722 327.118v8.875h4.057v2.153h-6.772v-11.028z" transform="translate(-89 -31.422) translate(183.337 81.647) translate(65.642 .931) translate(-441.793 -326.456)"/>
                <path d="M488.424 339.255a3.38 3.38 0 0 1-1.035.671 3.507 3.507 0 0 1-1.432.289 2.479 2.479 0 0 1-.977-.182 2.058 2.058 0 0 1-.721-.5 2.232 2.232 0 0 1-.447-.737 2.569 2.569 0 0 1-.157-.9 2.054 2.054 0 0 1 .7-1.7 3.532 3.532 0 0 1 1.995-.671q.48-.034 1.018-.05t.952-.033v-.265q0-1.325-1.473-1.324a4.673 4.673 0 0 0-1.118.132 4.431 4.431 0 0 0-.985.364l-.48-1.838a5.615 5.615 0 0 1 1.366-.538 6.709 6.709 0 0 1 1.714-.207 3.783 3.783 0 0 1 2.665.885 3.442 3.442 0 0 1 .961 2.658v4.735h-2.55zm-1.441-.778a2.548 2.548 0 0 0 .72-.1 2.694 2.694 0 0 0 .621-.265V336.9q-.4.034-.712.074t-.613.074q-.811.1-.811.761a.609.609 0 0 0 .207.48.862.862 0 0 0 .589.188z" transform="translate(-89 -31.422) translate(183.337 81.647) translate(65.642 .931) translate(-447.38 -328.361)"/>
                <path d="M499.155 326h2.645v4.2a2.843 2.843 0 0 1 .836-.572 2.982 2.982 0 0 1 1.234-.223 3.326 3.326 0 0 1 1.441.305 3.168 3.168 0 0 1 1.1.861 4.018 4.018 0 0 1 .7 1.316 5.379 5.379 0 0 1 .248 1.672 4.776 4.776 0 0 1-.29 1.664 3.732 3.732 0 0 1-.869 1.366 4.133 4.133 0 0 1-1.457.919 5.676 5.676 0 0 1-2.053.339 8.142 8.142 0 0 1-1.9-.215 7.326 7.326 0 0 1-1.648-.6zm3.957 5.43a2.042 2.042 0 0 0-1.309.448v3.841a1.963 1.963 0 0 0 .431.132 2.613 2.613 0 0 0 .513.05 2.056 2.056 0 0 0 .894-.182 1.61 1.61 0 0 0 .613-.5 2.248 2.248 0 0 0 .348-.729 3.318 3.318 0 0 0 .116-.893 2.832 2.832 0 0 0-.389-1.582 1.358 1.358 0 0 0-1.217-.587z" transform="translate(-89 -31.422) translate(183.337 81.647) translate(65.642 .931) translate(-453.723 -325.998)"/>
            </g>
        </g>
        <g>
            <path d="M264.87 239.874c.125-.058.145-.048.183.048a7.713 7.713 0 0 0 3.119 3.553 3.3 3.3 0 0 0-.558.722c-.087.144-.125.211-.183.211s-.106-.048-.2-.125a8.065 8.065 0 0 1-.915-.78c-.019.279-.019.616-.028.953a19.172 19.172 0 0 1-.241 2.7 1.246 1.246 0 0 1-1.434 1.184c-.24 0-.424 0-.655-.019-.3-.019-.289-.019-.356-.337a1.976 1.976 0 0 0-.3-.77 7.173 7.173 0 0 0 1.1.086c.4 0 .568-.154.645-.6a15.931 15.931 0 0 0 .183-2.388h-1.714a4.655 4.655 0 0 1-2.927 4.082.624.624 0 0 1-.231.077c-.077 0-.106-.067-.2-.231a1.823 1.823 0 0 0-.491-.577 3.706 3.706 0 0 0 2.782-3.351h-.115c-.9 0-1.213.02-1.271.02-.1 0-.106-.01-.106-.106v-.7a10.389 10.389 0 0 1-.933.8c-.106.077-.164.125-.212.125-.067 0-.106-.067-.2-.211a2.162 2.162 0 0 0-.539-.587 7.514 7.514 0 0 0 2.782-3.177 2.7 2.7 0 0 0 .193-.616 6.741 6.741 0 0 1 1 .337c.106.048.135.1.135.164a.2.2 0 0 1-.077.144.773.773 0 0 0-.222.308 8.7 8.7 0 0 1-1.762 2.551c.135.009.471.019 1.213.019h2.59c.838 0 1.155-.01 1.251-.019a10.147 10.147 0 0 1-2.07-3.052c-.038-.106-.019-.115.087-.164z" transform="translate(-89 -31.422) translate(152.581 31.422) translate(-259.065 -239.581)"/>
            <path d="M297.367 245.915c0 .433.028.9.028 1.28a.984.984 0 0 1-.318.809 2.771 2.771 0 0 1-1.482.232c-.289.009-.289.009-.356-.289a3.192 3.192 0 0 0-.25-.673 9.516 9.516 0 0 0 1.069.048.3.3 0 0 0 .347-.347v-1.28a17.862 17.862 0 0 1-5.025 2.407.978.978 0 0 1-.231.048c-.1 0-.135-.058-.212-.241a1.659 1.659 0 0 0-.4-.568 17.58 17.58 0 0 0 5.054-2.079c-1.4.193-2.7.327-4.062.442a.863.863 0 0 0-.347.087.3.3 0 0 1-.164.058c-.058 0-.106-.058-.135-.145a7.174 7.174 0 0 1-.164-.866c.366 0 .655-.009 1.011-.029.135 0 .279-.009.424-.02v-3.061c0-.731-.019-1.088-.019-1.145 0-.1.009-.106.106-.106.067 0 .375.019 1.27.019h.183a4.122 4.122 0 0 0 .25-.52 2.183 2.183 0 0 0 .135-.549c.308.029.76.087 1.03.145a.151.151 0 0 1 .135.135.177.177 0 0 1-.086.135.6.6 0 0 0-.154.193c-.087.183-.154.327-.232.462h1.242c.895 0 1.2-.019 1.271-.019.1 0 .106.01.106.106 0 .058-.019.471-.019 1.28v1.936a7.651 7.651 0 0 0 .616-.732 3.977 3.977 0 0 0 .4-.626 5.451 5.451 0 0 1 .607.529c.077.087.125.145.125.2a.17.17 0 0 1-.115.154 1.18 1.18 0 0 0-.385.337 11.168 11.168 0 0 1-1.251 1.271zm-4.265-4.631v.6h3.3v-.6zm3.3 1.945v-.6h-3.3v.6zm0 .751h-3.3v.741c.992-.067 2.127-.183 3.3-.327z" transform="translate(-89 -31.422) translate(152.581 31.422) translate(-271.943 -239.412)"/>
            <path d="M324.688 247.587v.568c0 .164-.038.183-.211.193-.241.009-.52.009-.76 0-.164-.01-.212-.029-.2-.145.009-.5.029-1.184.029-1.915v-2.359c0-.52.009-1.04-.019-1.6 0-.1.039-.135.106-.135.51.029 1.078.029 1.723.029h2.291c.626 0 1.358 0 1.81-.019.106 0 .135.048.125.193 0 .471-.009.991-.009 1.56v2.3c0 .838.029 1.31.048 1.83 0 .135-.048.164-.183.164-.289.009-.6.009-.886 0-.115 0-.125-.02-.125-.154v-.51zm3.735-4.341h-3.745v3.321h3.745z" transform="translate(-89 -31.422) translate(152.581 31.422) translate(-285.441 -240.546)"/>
            <path d="M354.865 244.191c.087.058.145.116.145.183 0 .048-.029.1-.106.154a.9.9 0 0 0-.24.327 7.41 7.41 0 0 1-1.069 1.607.262.262 0 0 1-.193.116.28.28 0 0 1-.144-.058 2.822 2.822 0 0 0-.818-.4 6.426 6.426 0 0 0 1.164-1.588 2.138 2.138 0 0 0 .26-.78 4.473 4.473 0 0 1 1.001.439zm1.281-2.647a7.4 7.4 0 0 0-.106-1.483c.453.038.953.1 1.194.144.116.019.174.068.174.145a.369.369 0 0 1-.058.174 2.231 2.231 0 0 0-.1.962V242h1.184c.838 0 1.492-.039 1.964-.058.087-.01.125.048.125.154a6.37 6.37 0 0 1-.009.751c-.009.125-.038.192-.135.183-.6-.019-1.329-.048-1.983-.048h-1.136l.009 1.945c0 .51.02.924.02 1.675a1 1 0 0 1-.568.992 3 3 0 0 1-1.232.318c-.116 0-.174-.058-.232-.2a2.246 2.246 0 0 0-.645-.866 4.773 4.773 0 0 0 1.309-.116c.154-.067.222-.173.222-.424v-3.321h-1.512c-.549 0-1.213.029-1.665.067-.087 0-.125-.077-.125-.193-.009-.173-.038-.607-.038-.924.731.058 1.319.068 1.81.068h1.531zm2.83 2.3a.186.186 0 0 1 .125-.048.182.182 0 0 1 .144.087 7.41 7.41 0 0 1 1.377 1.762.254.254 0 0 1 .048.145.186.186 0 0 1-.1.154 5.358 5.358 0 0 1-.645.481.31.31 0 0 1-.116.058c-.038 0-.067-.029-.106-.1a9.334 9.334 0 0 0-1.463-2.022c.26-.189.514-.353.736-.516zm.115-3.793c.048-.038.087-.029.145.019a4.439 4.439 0 0 1 .914 1.03.1.1 0 0 1-.029.154l-.4.3a.1.1 0 0 1-.164-.029 4.775 4.775 0 0 0-.972-1.117zm.857-.626c.058-.039.086-.029.144.019a4 4 0 0 1 .914.992.111.111 0 0 1-.028.173l-.385.3a.1.1 0 0 1-.164-.029 4.551 4.551 0 0 0-.962-1.107z" transform="translate(-89 -31.422) translate(152.581 31.422) translate(-297.279 -239.402)"/>
            <path d="M385.529 244.563a.173.173 0 0 1 .25.067 5.154 5.154 0 0 1 .828 1.424.655.655 0 0 1 .039.145c0 .058-.039.087-.116.135a3.909 3.909 0 0 1-.616.3c-.135.048-.193 0-.24-.135a5.7 5.7 0 0 0-.9-1.55c.326-.184.553-.29.755-.386zm5.285.125c.077.058.125.106.125.164s-.029.106-.106.173a1.321 1.321 0 0 0-.289.491 11.744 11.744 0 0 1-1.454 2.561 7.708 7.708 0 0 1-1.983 1.858.418.418 0 0 1-.231.106.22.22 0 0 1-.154-.068 2.18 2.18 0 0 0-.818-.4 8.355 8.355 0 0 0 2.31-2 9.948 9.948 0 0 0 1.3-2.32 3.465 3.465 0 0 0 .222-1.021 4.608 4.608 0 0 1 1.079.455zm-3.341-.587a.17.17 0 0 1 .25.077 5.562 5.562 0 0 1 .741 1.405c.048.145.029.193-.1.26a4.011 4.011 0 0 1-.665.3c-.106.038-.144-.009-.193-.144a6.515 6.515 0 0 0-.809-1.541c.392-.184.613-.29.777-.358z" transform="translate(-89 -31.422) translate(152.581 31.422) translate(-310.511 -241.314)"/>
            <path d="M419.172 242.9a13.577 13.577 0 0 1 3.062 1.309c.106.058.154.125.106.25a5.709 5.709 0 0 1-.414.838c-.038.067-.077.106-.125.106a.151.151 0 0 1-.106-.048 10.64 10.64 0 0 0-2.532-1.232v2.127c0 .626.019 1.194.038 1.887.01.116-.038.145-.173.145a6.479 6.479 0 0 1-.857 0c-.135 0-.182-.029-.182-.145.029-.712.038-1.28.038-1.9V241.5a7.351 7.351 0 0 0-.1-1.425 7.062 7.062 0 0 1 1.2.154c.135.028.183.087.183.164a.505.505 0 0 1-.077.221 2.493 2.493 0 0 0-.068.906z" transform="translate(-89 -31.422) translate(152.581 31.422) translate(-324.082 -239.679)"/>
            <path d="M449.344 242.548c-1.174.222-2.2.424-3.234.636-.366.087-.462.106-.607.154a.559.559 0 0 1-.212.077.225.225 0 0 1-.183-.144 6.719 6.719 0 0 1-.356-1.04 13.272 13.272 0 0 0 1.531-.164c1.184-.173 3.3-.491 5.786-.818.145-.019.193.039.2.106a5.446 5.446 0 0 1 .105.848c0 .115-.057.144-.182.144a4.309 4.309 0 0 0-1.175.211 3.155 3.155 0 0 0-2.455 2.84c0 1.242.886 1.916 2.561 2.022.154 0 .211.038.211.145a3.426 3.426 0 0 1-.106.828c-.029.145-.067.2-.183.2-1.694 0-3.552-.972-3.552-2.974a3.482 3.482 0 0 1 1.848-3.052zm1.906 1.04c.048-.039.086-.03.144.019a4.426 4.426 0 0 1 .914 1.03.1.1 0 0 1-.029.154l-.4.3a.1.1 0 0 1-.164-.029 4.79 4.79 0 0 0-.972-1.117zm.857-.626c.058-.038.087-.029.144.02a4 4 0 0 1 .915.991.111.111 0 0 1-.029.173l-.385.3a.1.1 0 0 1-.164-.029 4.55 4.55 0 0 0-.962-1.107z" transform="translate(-89 -31.422) translate(152.581 31.422) translate(-335.059 -240.156)"/>
            <path d="M480.388 242.579a12.052 12.052 0 0 1-1.2 4.149 1.828 1.828 0 0 1-1.636 1.107c-.848 0-1.7-.9-1.7-2.474a3.544 3.544 0 0 1 1.088-2.5 4.212 4.212 0 0 1 3.129-1.232c2.31 0 3.667 1.425 3.667 3.341 0 1.791-1.01 2.917-2.964 3.5-.2.058-.289.019-.414-.173a2.044 2.044 0 0 0-.674-.607c1.627-.385 2.908-1.059 2.908-2.879a2.187 2.187 0 0 0-2.156-2.234zm-2.763.934a2.772 2.772 0 0 0-.75 1.781c0 .886.356 1.377.655 1.377.25 0 .463-.125.722-.587a11.02 11.02 0 0 0 1.021-3.447 2.907 2.907 0 0 0-1.649.876z" transform="translate(-89 -31.422) translate(152.581 31.422) translate(-347.784 -240.312)"/>
            <path d="M508.836 243.338c-.481.039-.972.077-1.617.077-.164 0-.212-.058-.231-.2-.029-.183-.067-.5-.106-.837a4.927 4.927 0 0 0 .751.048c.4 0 .818-.038 1.222-.077 0-.318.01-.683.01-1.1a3.587 3.587 0 0 0-.067-.78 5.481 5.481 0 0 1 1.145.173c.116.029.192.1.192.183a.341.341 0 0 1-.057.154 1.173 1.173 0 0 0-.135.375c-.029.25-.038.492-.048.8a9.285 9.285 0 0 0 1.232-.356c.087-.029.154-.009.164.087a4.781 4.781 0 0 1 .058.751c0 .1-.029.125-.125.154a9.849 9.849 0 0 1-1.376.366c-.009.462-.009.933-.019 1.4a6.069 6.069 0 0 1 2.369-.529 1.9 1.9 0 0 1 2.05 1.925 1.86 1.86 0 0 1-2.089 1.954 3.721 3.721 0 0 1-.79-.087.259.259 0 0 1-.211-.289 1.686 1.686 0 0 0-.288-.818 3.584 3.584 0 0 0 1.2.173.955.955 0 0 0 1.04-.991c0-.626-.386-.972-1.059-.972a4.759 4.759 0 0 0-2.2.655c.01.4.019.732.039 1.156s.076 1.03.076 1.251c0 .135.02.279-.144.318a3.933 3.933 0 0 1-.712.116c-.106.009-.144-.067-.231-.193a5.9 5.9 0 0 0-1.367-1.232 1.7 1.7 0 0 0-.308.211.241.241 0 0 1-.164.067.269.269 0 0 1-.211-.154c-.106-.174-.3-.578-.443-.9a3.569 3.569 0 0 0 .886-.337c.414-.231.867-.491 1.569-.9zm-.895 3.312a9.741 9.741 0 0 0 .9.434c.077.019.106.009.1-.077-.019-.25-.039-.693-.058-1.011-.268.182-.596.404-.942.653zm4.6-5.054c.067-.106.1-.135.164-.116a4.578 4.578 0 0 1 2.041 1.175c.038.038.058.067.058.1a.249.249 0 0 1-.039.1c-.125.193-.375.491-.52.684-.028.038-.164.048-.193 0a4.439 4.439 0 0 0-1.953-1.184 5.833 5.833 0 0 1 .443-.755z" transform="translate(-89 -31.422) translate(152.581 31.422) translate(-360.281 -239.839)"/>
            <path d="M537.991 244.594c0-.308 0-.674.01-1.03-.211.3-.433.578-.655.838-.068.077-.125.116-.173.116s-.087-.058-.106-.164a2.93 2.93 0 0 0-.327-.876 9.358 9.358 0 0 0 1.916-3.263 2.739 2.739 0 0 0 .145-.674 7.076 7.076 0 0 1 .962.308c.106.038.154.077.154.144a.229.229 0 0 1-.106.173.972.972 0 0 0-.183.376 12.08 12.08 0 0 1-.635 1.415v4.852c0 .943.019 1.415.019 1.463 0 .1-.009.106-.115.106h-.809c-.106 0-.116-.009-.116-.106 0-.058.019-.52.019-1.463zm3.1 3.312c-.935 0-1.252.019-1.31.019-.087 0-.1-.01-.1-.116v-.751c0-.1.009-.106.1-.106.057 0 .375.019 1.31.019h.828v-3.389h-.982c-.944 0-1.261.019-1.319.019-.1 0-.106-.009-.106-.115v-.751c0-.1.009-.106.106-.106.058 0 .375.019 1.319.019h.982v-1.5a8.951 8.951 0 0 0-.067-1.463c.375.009.76.029 1.088.067.1.009.154.058.154.106a.492.492 0 0 1-.058.193 3.845 3.845 0 0 0-.067 1.078v1.521h1.242c.943 0 1.271-.019 1.319-.019.1 0 .106.01.106.106v.751c0 .106-.01.115-.106.115-.048 0-.376-.019-1.319-.019h-1.242v3.389h1.021c.924 0 1.241-.019 1.3-.019.106 0 .116.009.116.106v.751c0 .106-.009.116-.116.116-.058 0-.375-.019-1.3-.019z" transform="translate(-89 -31.422) translate(152.581 31.422) translate(-372.706 -239.459)"/>
            <path d="M569.307 245.63c-.838 0-1.126.02-1.184.02-.087 0-.1-.01-.1-.106v-.577c0-.1.01-.106.1-.106.058 0 .346.019 1.184.019h2.58v-.452H570.3c-.934 0-1.251.019-1.31.019-.1 0-.105-.01-.105-.1v-.53c0-.1.009-.106.105-.106.058 0 .376.02 1.31.02h1.589v-.424h-1.242c-.944 0-1.281.019-1.339.019-.105 0-.115-.009-.115-.115 0-.058.019-.183.019-.5v-.52c0-.318-.019-.442-.019-.5 0-.106.01-.116.115-.116.058 0 .395.02 1.339.02h1.242v-.424h-2.426c-.867 0-1.165.019-1.222.019-.1 0-.106-.01-.106-.106v-.606c0-.1.01-.106.106-.106.057 0 .356.019 1.222.019h2.426a4.623 4.623 0 0 0-.067-.886c.356.009.664.019 1 .057.086.01.154.048.154.106a.371.371 0 0 1-.057.183 1.482 1.482 0 0 0-.058.539h2.439c.867 0 1.165-.019 1.223-.019.1 0 .106.009.106.106v.606c0 .1-.009.106-.106.106-.058 0-.356-.019-1.223-.019h-2.44v.424h1.28c.944 0 1.281-.02 1.347-.02.1 0 .106.01.106.116 0 .058-.019.183-.019.5v.52c0 .318.019.443.019.5 0 .106-.01.115-.106.115-.067 0-.4-.019-1.347-.019h-1.28v.424h1.56c.943 0 1.281-.02 1.328-.02.1 0 .106.009.106.106 0 .058-.02.289-.02.838v.222c.568 0 .79-.019.838-.019.087 0 .1.009.1.106v.577c0 .1-.009.106-.1.106-.048 0-.269-.01-.838-.02v.491c0 .578.02.828.02.886 0 .1-.009.106-.106.106h-.741c-.1 0-.106-.01-.106-.106v-.203h-2.031c.009.173.009.337.009.481 0 .442-.086.7-.347.857a3.1 3.1 0 0 1-1.357.211c-.289 0-.289-.009-.385-.279a3.071 3.071 0 0 0-.376-.731 6.62 6.62 0 0 0 .973.038c.414-.01.5-.077.5-.356v-.221h-1.578c-.944 0-1.261.02-1.32.02-.1 0-.105-.01-.105-.116v-.52c0-.106.009-.115.105-.115.058 0 .376.019 1.32.019h1.578v-.453zm2.58-2.936v-.481h-1.743v.481zm2.753-.481h-1.78v.481h1.781zm-1.781 2.214v.452h2.041v-.452zm2.041 1.656v-.453h-2.04v.453z" transform="translate(-89 -31.422) translate(152.581 31.422) translate(-385.511 -239.446)"/>
        </g>
    </g>
</svg>
