<svg xmlns="http://www.w3.org/2000/svg" width="137.318" height="50.481" viewBox="0 0 137.318 50.481">
    <defs>
        <style>
            .cls-1{fill:#fff}
        </style>
    </defs>
    <g id="グループ_43" transform="translate(-293.127 -178.782)">
        <g id="グループ_42" transform="translate(293.127 178.782)">
            <g id="グループ_39" transform="translate(46.344 1.007)">
                <path id="パス_100" d="M831.953 270.687a18.909 18.909 0 1 1-13.284-5.452 18.092 18.092 0 0 1 13.284 5.452zm-4.089 22.665a12.871 12.871 0 0 0 3.742-9.408 13.027 13.027 0 0 0-3.742-9.488 12.938 12.938 0 0 0-18.362 0 13.078 13.078 0 0 0-3.715 9.488 12.92 12.92 0 0 0 3.715 9.408 13 13 0 0 0 18.362 0z" class="cls-1" transform="translate(-800.013 -265.235)"/>
                <path id="パス_101" d="M963.331 314.591h-6.2l4.408-9.807-10.906-27.112h6.094l7.781 20.4 9.062-20.4h6.2z" class="cls-1" transform="translate(-888.797 -272.566)"/>
                <path id="パス_102" d="M908.323 281.546a13.041 13.041 0 0 0-4.143 9.97v13.257h5.452v-13.258a7.764 7.764 0 0 1 2.593-6.09 8.567 8.567 0 0 1 6.065-2.535v-5.218a14.249 14.249 0 0 0-9.967 3.874z" class="cls-1" transform="translate(-861.415 -272.566)"/>
            </g>
            <g id="グループ_41">
                <path id="パス_103" d="M725.743 311.865a60.823 60.823 0 0 0-13.094 28.77 69.3 69.3 0 0 1 22.886-11.462l.094-.028a3.819 3.819 0 0 0 2.9-3.706 3.766 3.766 0 0 0-.067-.714v-.015a40.883 40.883 0 0 0-1.966-5.922c-2.372-6.287 2.141-9.571 2.141-9.571z" class="cls-1" transform="translate(-702.171 -290.153)"/>
                <g id="グループ_40">
                    <path id="パス_104" d="M687.187 275.08l20.453 14.993s-21.802 8.268-20.453-14.993z" class="cls-1" transform="translate(-687.127 -270.031)"/>
                    <circle id="楕円形_5" cx="8.723" cy="8.723" r="8.723" class="cls-1" transform="translate(18.675)"/>
                </g>
            </g>
        </g>
    </g>
</svg>
